<svg width="46" height="46" viewBox="0 0 46 46" fill="none" xmlns="http://www.w3.org/2000/svg">
<g clip-path="url(#clip0_145_1373)">
<path d="M45.6198 23.4178C45.6188 22.9614 45.3818 22.538 44.9932 22.2984L40.4199 19.4792L44.9981 16.6297C45.3842 16.3894 45.6191 15.9671 45.6198 15.5125C45.6205 15.0577 45.3868 14.6347 45.0014 14.3933L23.8198 1.12184C23.3917 0.853594 22.8479 0.853594 22.4198 1.12184L1.23827 14.3933C0.852959 14.6347 0.619259 15.0577 0.619874 15.5125C0.620577 15.9672 0.855508 16.3895 1.24161 16.6297L5.78835 19.4596L1.23959 22.3028C0.85375 22.5439 0.619523 22.967 0.619962 23.422C0.620402 23.877 0.85542 24.2996 1.2417 24.54L5.78844 27.3699L1.23959 30.2129C0.854366 30.4537 0.620226 30.8759 0.619962 31.3302C0.619698 31.7845 0.853399 32.2069 1.23836 32.448L22.4199 45.7195C22.634 45.8536 22.8769 45.9207 23.1199 45.9207C23.3628 45.9207 23.6058 45.8536 23.8198 45.7195L45.0014 32.448C45.3876 32.2061 45.6215 31.7817 45.6198 31.326C45.6181 30.8703 45.3812 30.4477 44.9932 30.2086L40.4199 27.3894L44.9981 24.5399C45.3856 24.2988 45.6208 23.8743 45.6198 23.4178ZM4.42728 15.5069L23.1199 3.79493L41.8125 15.5069C41.6328 15.6187 23.6556 26.8079 23.1199 27.1413L4.42728 15.5069ZM41.8039 31.34L23.1199 43.0466L4.42359 31.3323L8.28101 28.9214L22.4233 37.7236C22.6365 37.8563 22.8782 37.9226 23.1199 37.9226C23.3616 37.9226 23.6033 37.8563 23.8165 37.7236L37.9197 28.9456L41.8039 31.34ZM23.1199 35.0514L4.42948 23.4185L8.28101 21.0112L22.4233 29.8134C22.6365 29.9462 22.8782 30.0125 23.1199 30.0125C23.3616 30.0125 23.6033 29.9462 23.8165 29.8134L37.9197 21.0355L41.7979 23.4261C41.6907 23.4928 23.6147 34.7434 23.1199 35.0514Z" fill="#60E1CB"/>
</g>
<defs>
<clipPath id="clip0_145_1373">
<rect width="45" height="45" fill="white" transform="translate(0.619873 0.920654)"/>
</clipPath>
</defs>
</svg>
