<svg width="37" height="37" viewBox="0 0 37 37" fill="none" xmlns="http://www.w3.org/2000/svg">
<circle opacity="0.4" cx="18.25" cy="18.8" r="18" fill="#60E1CB"/>
<path d="M13.19 11.8001C13.1897 12.3305 12.9788 12.8391 12.6035 13.214C12.2282 13.5889 11.7194 13.7993 11.189 13.7991C10.6586 13.7988 10.15 13.5878 9.77508 13.2126C9.4002 12.8373 9.18974 12.3285 9.19 11.7981C9.19027 11.2676 9.40124 10.759 9.7765 10.3842C10.1518 10.0093 10.6606 9.79881 11.191 9.79907C11.7214 9.79934 12.23 10.0103 12.6049 10.3856C12.9798 10.7608 13.1903 11.2696 13.19 11.8001ZM13.25 15.2801H9.25V27.8001H13.25V15.2801ZM19.57 15.2801H15.59V27.8001H19.53V21.2301C19.53 17.5701 24.3 17.2301 24.3 21.2301V27.8001H28.25V19.8701C28.25 13.7001 21.19 13.9301 19.53 16.9601L19.57 15.2801Z" fill="#292525"/>
</svg>
