<svg width="45" height="46" viewBox="0 0 45 46" fill="none" xmlns="http://www.w3.org/2000/svg">
<g clip-path="url(#clip0_145_1312)">
<mask id="path-1-inside-1_145_1312" fill="white">
<path d="M30.8587 28.9782C32.0154 27.3251 32.6948 25.3149 32.6948 23.1489C32.6948 17.5274 28.1211 12.9536 22.4995 12.9536C16.8779 12.9536 12.3042 17.5274 12.3042 23.1489C12.3042 28.7708 16.8779 33.3442 22.4995 33.3442C24.6882 33.3442 26.7179 32.6507 28.381 31.4724L35.0335 38.125C35.3765 38.468 35.8266 38.6396 36.2764 38.6396C36.7261 38.6396 37.1762 38.468 37.5192 38.125C38.2058 37.4384 38.2058 36.3253 37.5192 35.639L30.8587 28.9782ZM15.8198 23.1489C15.8198 19.4658 18.8163 16.4692 22.4995 16.4692C26.1827 16.4692 29.1792 19.4658 29.1792 23.1489C29.1792 26.8321 26.1827 29.8286 22.4995 29.8286C18.8163 29.8286 15.8198 26.8321 15.8198 23.1489ZM44.9995 22.1821V23.9399C44.9995 26.8479 42.634 29.2134 39.7261 29.2134H38.8406C38.6978 29.2134 38.589 29.2673 38.5231 29.3126C37.7224 29.8619 36.6283 29.658 36.0793 28.857C35.53 28.0567 35.7339 26.9622 36.5345 26.4132C37.2174 25.9453 38.0146 25.6978 38.8406 25.6978H39.7261C40.6953 25.6978 41.4839 24.9091 41.4839 23.9399V22.1821C41.4839 21.2129 40.6953 20.4243 39.7261 20.4243H38.8406C37.179 20.4243 35.6927 19.4242 35.0535 17.8769L35.0428 17.8511C34.4005 16.3041 34.7441 14.5453 35.919 13.3704L36.5452 12.7445C37.2305 12.0589 37.2305 10.9438 36.5452 10.2585L35.302 9.0157C34.97 8.68371 34.5285 8.50072 34.0592 8.50072C33.5895 8.50072 33.148 8.68336 32.8164 9.0157L32.1901 9.64158C31.0153 10.8164 29.2564 11.1604 27.7094 10.5174L27.6833 10.5068C26.1363 9.86783 25.1362 8.38158 25.1362 6.7199V5.83447C25.1362 4.86527 24.3476 4.07666 23.3784 4.07666H21.6206C20.6514 4.07666 19.8628 4.86527 19.8628 5.83447V6.7199C19.8628 8.38158 18.8627 9.86783 17.3153 10.5068L17.293 10.516C15.7422 11.1601 13.9837 10.8164 12.8089 9.64158L12.1827 9.01536C11.851 8.68336 11.4095 8.50072 10.9398 8.50072C10.4705 8.50072 10.029 8.68336 9.69701 9.01536L8.45383 10.2585C7.76856 10.9438 7.76856 12.0589 8.45383 12.7445L9.08006 13.3704C10.2549 14.5453 10.5986 16.3041 9.95587 17.8515L9.94523 17.8775C9.3063 19.4242 7.82006 20.4243 6.15838 20.4243H5.27295C4.30375 20.4243 3.51514 21.2129 3.51514 22.1821V23.9399C3.51514 24.9091 4.30375 25.6978 5.27295 25.6978H6.15838C7.81972 25.6978 9.3063 26.6979 9.94523 28.2452L9.95827 28.2761C10.5986 29.818 10.2549 31.5768 9.08006 32.7517L8.45383 33.3775C8.12184 33.7095 7.93919 34.151 7.93919 34.6207C7.93919 35.09 8.12184 35.5315 8.45383 35.8635L9.69701 37.1067C10.3823 37.792 11.4974 37.7923 12.183 37.1067L12.8089 36.4805C13.983 35.3067 15.7405 34.9623 17.2872 35.6036L17.3098 35.6129C18.863 36.2542 19.8628 37.7408 19.8628 39.4022V40.2876C19.8628 41.2568 20.6514 42.0454 21.6206 42.0454H23.3784C24.3476 42.0454 25.1362 41.2568 25.1362 40.2876V39.4022C25.1362 38.5761 25.3838 37.7786 25.8521 37.0961C26.401 36.2954 27.4952 36.0915 28.2958 36.6408C29.0965 37.1898 29.3004 38.284 28.7511 39.0846C28.7058 39.1505 28.6519 39.2593 28.6519 39.4022V40.2876C28.6519 43.1955 26.2864 45.561 23.3784 45.561H21.6206C18.7127 45.561 16.3472 43.1955 16.3472 40.2876V39.4022C16.3472 39.1694 16.2006 38.9583 15.9733 38.8645L15.9414 38.8511C15.7131 38.7564 15.4593 38.8017 15.2949 38.9665L14.6687 39.5927C12.6128 41.6485 9.26717 41.6485 7.21101 39.5927L5.96783 38.3495C4.97186 37.3536 4.42357 36.0294 4.42357 34.6207C4.42357 33.2121 4.97186 31.8879 5.96818 30.8919L6.59406 30.2657C6.75851 30.1012 6.80383 29.8475 6.70941 29.6195L6.69499 29.5852C6.60229 29.36 6.39115 29.2134 6.15838 29.2134H5.27295C2.36501 29.2134 -0.000488281 26.8479 -0.000488281 23.9399V22.1821C-0.000488281 19.2742 2.36501 16.9087 5.27295 16.9087H6.15838C6.39115 16.9087 6.60229 16.7621 6.69602 16.5352L6.70907 16.5032C6.80417 16.2749 6.75885 16.0212 6.59406 15.8564L5.96818 15.2305C3.91202 13.1744 3.91202 9.82869 5.96818 7.77253L7.21101 6.5297C8.20733 5.53372 9.53152 4.98509 10.9398 4.98509C12.3485 4.98509 13.6727 5.53372 14.669 6.5297L15.2949 7.15558C15.4597 7.32037 15.7134 7.36569 15.9414 7.27094L15.9729 7.25755C16.2006 7.16382 16.3472 6.95267 16.3472 6.7199V5.83447C16.3472 2.92653 18.713 0.561035 21.6206 0.561035H23.3784C26.2864 0.561035 28.6519 2.92653 28.6519 5.83447V6.7199C28.6519 6.95267 28.7985 7.16382 29.0254 7.25755L29.0611 7.27231C29.286 7.36569 29.5397 7.32037 29.7041 7.15558L30.3304 6.5297C31.3263 5.53338 32.6505 4.98509 34.0592 4.98509C35.4675 4.98509 36.792 5.53338 37.788 6.5297L39.0308 7.77253C41.087 9.82869 41.087 13.1744 39.0308 15.2302L38.405 15.8564C38.2402 16.0209 38.1949 16.2746 38.2896 16.5029L38.3027 16.5345C38.3967 16.7617 38.6079 16.9087 38.8406 16.9087H39.7261C42.634 16.9087 44.9995 19.2742 44.9995 22.1821Z"/>
</mask>
<path d="M30.8587 28.9782C32.0154 27.3251 32.6948 25.3149 32.6948 23.1489C32.6948 17.5274 28.1211 12.9536 22.4995 12.9536C16.8779 12.9536 12.3042 17.5274 12.3042 23.1489C12.3042 28.7708 16.8779 33.3442 22.4995 33.3442C24.6882 33.3442 26.7179 32.6507 28.381 31.4724L35.0335 38.125C35.3765 38.468 35.8266 38.6396 36.2764 38.6396C36.7261 38.6396 37.1762 38.468 37.5192 38.125C38.2058 37.4384 38.2058 36.3253 37.5192 35.639L30.8587 28.9782ZM15.8198 23.1489C15.8198 19.4658 18.8163 16.4692 22.4995 16.4692C26.1827 16.4692 29.1792 19.4658 29.1792 23.1489C29.1792 26.8321 26.1827 29.8286 22.4995 29.8286C18.8163 29.8286 15.8198 26.8321 15.8198 23.1489ZM44.9995 22.1821V23.9399C44.9995 26.8479 42.634 29.2134 39.7261 29.2134H38.8406C38.6978 29.2134 38.589 29.2673 38.5231 29.3126C37.7224 29.8619 36.6283 29.658 36.0793 28.857C35.53 28.0567 35.7339 26.9622 36.5345 26.4132C37.2174 25.9453 38.0146 25.6978 38.8406 25.6978H39.7261C40.6953 25.6978 41.4839 24.9091 41.4839 23.9399V22.1821C41.4839 21.2129 40.6953 20.4243 39.7261 20.4243H38.8406C37.179 20.4243 35.6927 19.4242 35.0535 17.8769L35.0428 17.8511C34.4005 16.3041 34.7441 14.5453 35.919 13.3704L36.5452 12.7445C37.2305 12.0589 37.2305 10.9438 36.5452 10.2585L35.302 9.0157C34.97 8.68371 34.5285 8.50072 34.0592 8.50072C33.5895 8.50072 33.148 8.68336 32.8164 9.0157L32.1901 9.64158C31.0153 10.8164 29.2564 11.1604 27.7094 10.5174L27.6833 10.5068C26.1363 9.86783 25.1362 8.38158 25.1362 6.7199V5.83447C25.1362 4.86527 24.3476 4.07666 23.3784 4.07666H21.6206C20.6514 4.07666 19.8628 4.86527 19.8628 5.83447V6.7199C19.8628 8.38158 18.8627 9.86783 17.3153 10.5068L17.293 10.516C15.7422 11.1601 13.9837 10.8164 12.8089 9.64158L12.1827 9.01536C11.851 8.68336 11.4095 8.50072 10.9398 8.50072C10.4705 8.50072 10.029 8.68336 9.69701 9.01536L8.45383 10.2585C7.76856 10.9438 7.76856 12.0589 8.45383 12.7445L9.08006 13.3704C10.2549 14.5453 10.5986 16.3041 9.95587 17.8515L9.94523 17.8775C9.3063 19.4242 7.82006 20.4243 6.15838 20.4243H5.27295C4.30375 20.4243 3.51514 21.2129 3.51514 22.1821V23.9399C3.51514 24.9091 4.30375 25.6978 5.27295 25.6978H6.15838C7.81972 25.6978 9.3063 26.6979 9.94523 28.2452L9.95827 28.2761C10.5986 29.818 10.2549 31.5768 9.08006 32.7517L8.45383 33.3775C8.12184 33.7095 7.93919 34.151 7.93919 34.6207C7.93919 35.09 8.12184 35.5315 8.45383 35.8635L9.69701 37.1067C10.3823 37.792 11.4974 37.7923 12.183 37.1067L12.8089 36.4805C13.983 35.3067 15.7405 34.9623 17.2872 35.6036L17.3098 35.6129C18.863 36.2542 19.8628 37.7408 19.8628 39.4022V40.2876C19.8628 41.2568 20.6514 42.0454 21.6206 42.0454H23.3784C24.3476 42.0454 25.1362 41.2568 25.1362 40.2876V39.4022C25.1362 38.5761 25.3838 37.7786 25.8521 37.0961C26.401 36.2954 27.4952 36.0915 28.2958 36.6408C29.0965 37.1898 29.3004 38.284 28.7511 39.0846C28.7058 39.1505 28.6519 39.2593 28.6519 39.4022V40.2876C28.6519 43.1955 26.2864 45.561 23.3784 45.561H21.6206C18.7127 45.561 16.3472 43.1955 16.3472 40.2876V39.4022C16.3472 39.1694 16.2006 38.9583 15.9733 38.8645L15.9414 38.8511C15.7131 38.7564 15.4593 38.8017 15.2949 38.9665L14.6687 39.5927C12.6128 41.6485 9.26717 41.6485 7.21101 39.5927L5.96783 38.3495C4.97186 37.3536 4.42357 36.0294 4.42357 34.6207C4.42357 33.2121 4.97186 31.8879 5.96818 30.8919L6.59406 30.2657C6.75851 30.1012 6.80383 29.8475 6.70941 29.6195L6.69499 29.5852C6.60229 29.36 6.39115 29.2134 6.15838 29.2134H5.27295C2.36501 29.2134 -0.000488281 26.8479 -0.000488281 23.9399V22.1821C-0.000488281 19.2742 2.36501 16.9087 5.27295 16.9087H6.15838C6.39115 16.9087 6.60229 16.7621 6.69602 16.5352L6.70907 16.5032C6.80417 16.2749 6.75885 16.0212 6.59406 15.8564L5.96818 15.2305C3.91202 13.1744 3.91202 9.82869 5.96818 7.77253L7.21101 6.5297C8.20733 5.53372 9.53152 4.98509 10.9398 4.98509C12.3485 4.98509 13.6727 5.53372 14.669 6.5297L15.2949 7.15558C15.4597 7.32037 15.7134 7.36569 15.9414 7.27094L15.9729 7.25755C16.2006 7.16382 16.3472 6.95267 16.3472 6.7199V5.83447C16.3472 2.92653 18.713 0.561035 21.6206 0.561035H23.3784C26.2864 0.561035 28.6519 2.92653 28.6519 5.83447V6.7199C28.6519 6.95267 28.7985 7.16382 29.0254 7.25755L29.0611 7.27231C29.286 7.36569 29.5397 7.32037 29.7041 7.15558L30.3304 6.5297C31.3263 5.53338 32.6505 4.98509 34.0592 4.98509C35.4675 4.98509 36.792 5.53338 37.788 6.5297L39.0308 7.77253C41.087 9.82869 41.087 13.1744 39.0308 15.2302L38.405 15.8564C38.2402 16.0209 38.1949 16.2746 38.2896 16.5029L38.3027 16.5345C38.3967 16.7617 38.6079 16.9087 38.8406 16.9087H39.7261C42.634 16.9087 44.9995 19.2742 44.9995 22.1821Z" fill="#60E1CB" stroke="#FCFCFE" stroke-width="1.2" mask="url(#path-1-inside-1_145_1312)"/>
</g>
<defs>
<clipPath id="clip0_145_1312">
<rect width="45" height="45" fill="white" transform="translate(-0.000488281 0.561035)"/>
</clipPath>
</defs>
</svg>
