<svg width="20" height="20" viewBox="0 0 20 20" fill="none" xmlns="http://www.w3.org/2000/svg">
<path d="M11.9335 12.1808C12.9156 11.1987 13.4067 10.0193 13.4067 8.64286C13.4067 7.26637 12.9156 6.09077 11.9335 5.11607C10.9588 4.13393 9.78319 3.64286 8.4067 3.64286C7.03022 3.64286 5.8509 4.13393 4.86876 5.11607C3.89405 6.09077 3.4067 7.26637 3.4067 8.64286C3.4067 10.0193 3.89405 11.1987 4.86876 12.1808C5.8509 13.1555 7.03022 13.6429 8.4067 13.6429C9.78319 13.6429 10.9588 13.1555 11.9335 12.1808ZM19.121 17.9286C19.121 18.3155 18.9796 18.6503 18.6969 18.933C18.4141 19.2158 18.0793 19.3571 17.6924 19.3571C17.2906 19.3571 16.9558 19.2158 16.688 18.933L12.8598 15.1161C11.528 16.0387 10.0436 16.5 8.4067 16.5C7.34272 16.5 6.32337 16.2954 5.34867 15.8862C4.38141 15.4695 3.54435 14.9115 2.83751 14.2121C2.1381 13.5052 1.58007 12.6682 1.1634 11.7009C0.754174 10.7262 0.549561 9.70684 0.549561 8.64286C0.549561 7.57887 0.754174 6.56324 1.1634 5.59598C1.58007 4.62128 2.1381 3.78423 2.83751 3.08482C3.54435 2.37798 4.38141 1.81994 5.34867 1.41071C6.32337 0.994047 7.34272 0.785713 8.4067 0.785713C9.47069 0.785713 10.4863 0.994047 11.4536 1.41071C12.4283 1.81994 13.2653 2.37798 13.9647 3.08482C14.6716 3.78423 15.2296 4.62128 15.6388 5.59598C16.0555 6.56324 16.2638 7.57887 16.2638 8.64286C16.2638 10.2798 15.8025 11.7641 14.8799 13.096L18.708 16.9241C18.9833 17.1994 19.121 17.5342 19.121 17.9286Z" fill="white"/>
</svg>
