<svg width="50" height="50" viewBox="0 0 50 50" fill="none" xmlns="http://www.w3.org/2000/svg">
<g clip-path="url(#clip0_145_1330)">
<path d="M26.2363 23.6234C25.8545 23.2492 25.2363 23.2492 24.8545 23.6234C24.4736 23.9967 24.4736 24.6025 24.8545 24.9767C25.2363 25.3499 25.8545 25.3499 26.2363 24.9767C26.6172 24.6025 26.6172 23.9967 26.2363 23.6234Z" fill="#60E1CB"/>
<path d="M38.6647 11.4423C36.7566 9.57235 33.6675 9.57225 31.7592 11.4423C29.856 13.3074 29.8559 16.3431 31.7595 18.2098C33.6634 20.0745 36.761 20.0753 38.6647 18.2096C40.5728 16.3398 40.5731 13.3124 38.6647 11.4423ZM37.2837 16.8561C36.1418 17.9753 34.283 17.9753 33.1405 16.8563C31.9985 15.7364 31.9984 13.9148 33.1403 12.7957C34.2852 11.6738 36.1387 11.6736 37.2837 12.7957C38.4285 13.9175 38.4287 15.7341 37.2837 16.8561Z" fill="#60E1CB"/>
<path d="M49.714 0.614308C49.5222 0.426443 49.2605 0.324615 48.9884 0.334664C48.7676 0.342416 43.5103 0.549517 37.2608 2.71422C32.253 4.44702 28.0789 6.92793 24.8544 10.088C24.1318 10.7961 23.4287 11.547 22.7559 12.3271C19.5677 10.4879 17.0128 11.0646 15.3976 11.9117C11.6788 13.8621 9.37695 19.1579 9.37695 22.9458C9.37725 23.3328 9.61523 23.6819 9.98008 23.8299C10.1009 23.879 10.2278 23.9029 10.3536 23.9029C10.6078 23.9029 10.8575 23.8055 11.0443 23.6225C13.0056 21.7005 15.4246 21.8207 16.2148 21.9226L16.5568 22.2577C15.8838 23.8272 15.3416 25.388 14.9439 26.9059C14.8004 27.4552 14.8488 28.0365 15.0622 28.5683C14.122 28.9929 13.2148 29.6164 12.425 30.3905C9.91123 32.854 9.40078 38.8579 9.38027 39.1123C9.35781 39.3914 9.46113 39.6663 9.66318 39.8643C9.84707 40.0444 10.0958 40.1446 10.3536 40.1446C10.3792 40.1446 10.4049 40.1436 10.4306 40.1416C10.6901 40.1216 16.8167 39.6214 19.3304 37.1579C20.12 36.3841 20.7561 35.4953 21.1894 34.574C21.7638 34.7954 22.3551 34.8227 22.8867 34.6891C24.4349 34.2995 26.0273 33.7684 27.6291 33.1087L27.9711 33.4439C28.0749 34.2184 28.1975 36.589 26.2364 38.5109C25.9572 38.7846 25.8736 39.1962 26.0248 39.5537C26.1758 39.9114 26.5319 40.1445 26.9269 40.1445C30.7921 40.1445 36.1959 37.8887 38.1862 34.2442C39.0505 32.6616 39.639 30.1578 37.7622 27.0332C38.5578 26.3742 39.3242 25.6851 40.047 24.9767C43.2716 21.8166 45.803 17.726 47.5712 12.8187C49.7802 6.69393 49.9914 1.54167 49.9993 1.32538C50.0091 1.0598 49.9057 0.802268 49.714 0.614308ZM11.5603 20.8873C12.167 18.0102 13.929 14.8531 16.3196 13.5992C17.9172 12.7614 19.6634 12.8435 21.52 13.8395C19.9383 15.8782 18.5632 18.0745 17.417 20.3939C17.4024 20.3851 17.2266 20.1685 16.9001 20.0964C16.7658 20.0666 14.1819 19.522 11.5603 20.8873ZM17.9494 35.8044C16.6066 37.1203 13.4567 37.8143 11.4658 38.0977C11.7551 36.1465 12.4634 33.0597 13.806 31.7439C14.558 31.007 15.4299 30.4483 16.3062 30.1336L19.5926 33.3542C19.2715 34.213 18.7014 35.0675 17.9494 35.8044ZM22.4015 32.835C22.1189 32.9059 21.7916 32.8018 21.5482 32.5637C20.2848 31.3256 19.7906 30.8412 19.6355 30.6893C19.3512 30.4107 18.6538 29.7272 17.1135 28.2176C16.8699 27.9785 16.7637 27.6578 16.8358 27.3813C17.1486 26.1875 17.5577 24.9627 18.0552 23.7261L26.1308 31.6402C24.8688 32.1278 23.6192 32.5287 22.4015 32.835ZM36.4644 33.3411C35.1849 35.6838 31.9634 37.4107 29.0277 38.0051C29.9637 36.2789 30.1701 34.0814 29.8281 32.749C29.7487 32.4395 29.5426 32.2838 29.5311 32.2656C31.8976 31.1423 34.1387 29.7947 36.2192 28.2446C37.2355 30.0643 37.3192 31.7758 36.4644 33.3411ZM38.6662 23.6233C37.7862 24.4856 36.8386 25.3187 35.8498 26.0993C33.4726 27.9751 30.8562 29.564 28.0648 30.8288L18.8832 21.831C20.1738 19.0952 21.7951 16.5311 23.709 14.2018C24.5062 13.2321 25.3562 12.3034 26.2358 11.4415C29.1289 8.60617 32.8626 6.34969 37.3365 4.72542L45.5193 12.7446C43.862 17.1288 41.5595 20.7879 38.6662 23.6233ZM46.2219 10.7261L39.3961 4.03684C43.115 2.90486 46.3502 2.48099 47.9651 2.32863C47.8095 3.91147 47.3769 7.08201 46.2219 10.7261Z" fill="#60E1CB"/>
<path d="M23.4735 39.8639C23.092 39.4902 22.4736 39.4904 22.0924 39.8641L19.3307 42.5716C18.9494 42.9454 18.9495 43.5514 19.3309 43.925C19.7124 44.2986 20.3308 44.2986 20.712 43.9248L23.4737 41.2174C23.855 40.8436 23.8549 40.2376 23.4735 39.8639Z" fill="#60E1CB"/>
<path d="M9.66318 26.3299C9.28193 25.9561 8.66367 25.9561 8.28212 26.3298L5.51943 29.0362C5.13799 29.4098 5.13789 30.0158 5.51914 30.3897C5.90029 30.7633 6.51855 30.7637 6.90019 30.3898L9.66288 27.6834C10.0443 27.3098 10.0444 26.7038 9.66318 26.3299Z" fill="#60E1CB"/>
<path d="M16.5681 41.2183C16.187 40.8446 15.5685 40.8446 15.1871 41.2182L8.57186 47.7002C8.19042 48.0739 8.19042 48.6799 8.57176 49.0536C8.95292 49.4273 9.57137 49.4275 9.95282 49.0537L16.568 42.5717C16.9495 42.198 16.9495 41.592 16.5681 41.2183Z" fill="#60E1CB"/>
<path d="M8.75576 41.2183C8.37451 40.8446 7.75605 40.8446 7.37471 41.2182L0.759484 47.7002C0.37804 48.0739 0.37804 48.6799 0.759387 49.0536C1.14054 49.4273 1.75899 49.4275 2.14044 49.0537L8.75566 42.5717C9.1371 42.198 9.1371 41.592 8.75576 41.2183Z" fill="#60E1CB"/>
<path d="M8.28154 33.0966C7.90029 32.723 7.28183 32.723 6.90049 33.0967L0.286242 39.5796C-0.0951048 39.9534 -0.0951048 40.5593 0.28634 40.9331C0.667687 41.3069 1.28604 41.3069 1.66739 40.933L8.28164 34.4501C8.66298 34.0763 8.66298 33.4704 8.28154 33.0966Z" fill="#60E1CB"/>
<path d="M30.3791 19.5625C29.9976 19.1888 29.3795 19.1888 28.9979 19.5625L27.6171 20.9158C27.2357 21.2895 27.2357 21.8955 27.6171 22.2693C27.9985 22.643 28.6168 22.643 28.9982 22.2693L30.3791 20.916C30.7604 20.5423 30.7604 19.9363 30.3791 19.5625Z" fill="#60E1CB"/>
</g>
<defs>
<clipPath id="clip0_145_1330">
<rect width="50" height="49" fill="white" transform="translate(-0.000244141 0.333984)"/>
</clipPath>
</defs>
</svg>
