<svg width="16" height="26" viewBox="0 0 16 26" fill="none" xmlns="http://www.w3.org/2000/svg">
<path d="M5.49141 12.7319L14.5847 21.8209C14.938 22.1999 15.1304 22.7011 15.1212 23.219C15.1121 23.7368 14.9022 24.231 14.5357 24.5972C14.1693 24.9635 13.6749 25.1733 13.1568 25.1824C12.6387 25.1916 12.1372 24.9993 11.7581 24.6462L2.42474 15.3173L1.89141 14.7843L1.25141 14.1446C0.876877 13.7697 0.666505 13.2617 0.666505 12.7319C0.666505 12.2022 0.876877 11.6941 1.25141 11.3192L11.7581 0.817586C12.1372 0.464475 12.6387 0.272239 13.1568 0.281377C13.6749 0.290515 14.1693 0.500312 14.5357 0.866573C14.9022 1.23283 15.1121 1.72696 15.1212 2.24485C15.1304 2.76273 14.938 3.26395 14.5847 3.64291L5.49141 12.7319Z" fill="#3B3B3B" fill-opacity="0.98"/>
</svg>
