<svg width="16" height="26" viewBox="0 0 16 26" fill="none" xmlns="http://www.w3.org/2000/svg">
<path d="M10.5083 12.7319L1.41501 21.8209C1.06173 22.1999 0.869404 22.7011 0.878546 23.219C0.887688 23.7368 1.09759 24.231 1.46402 24.5972C1.83045 24.9635 2.32482 25.1733 2.84295 25.1824C3.36109 25.1916 3.86255 24.9993 4.24168 24.6462L13.575 15.3173L14.1083 14.7843L14.7483 14.1446C15.1229 13.7697 15.3333 13.2617 15.3333 12.7319C15.3333 12.2022 15.1229 11.6941 14.7483 11.3192L4.24168 0.817586C3.86254 0.464475 3.36109 0.272239 2.84295 0.281377C2.32481 0.290515 1.83045 0.500312 1.46402 0.866573C1.09758 1.23283 0.887686 1.72696 0.878544 2.24485C0.869402 2.76273 1.06173 3.26395 1.41501 3.64291L10.5083 12.7319Z" fill="#3B3B3B" fill-opacity="0.98"/>
</svg>
