<svg width="16" height="20" viewBox="0 0 16 20" fill="none" xmlns="http://www.w3.org/2000/svg">
<path d="M7.99951 10.4998C10.7565 10.4998 12.9995 8.25676 12.9995 5.49976C12.9995 2.74276 10.7565 0.499756 7.99951 0.499756C5.24251 0.499756 2.99951 2.74276 2.99951 5.49976C2.99951 8.25676 5.24251 10.4998 7.99951 10.4998ZM7.99951 1.49976C10.2055 1.49976 11.9995 3.29376 11.9995 5.49976C11.9995 7.70576 10.2055 9.49976 7.99951 9.49976C5.79351 9.49976 3.99951 7.70576 3.99951 5.49976C3.99951 3.29376 5.79351 1.49976 7.99951 1.49976ZM15.4995 15.9668V16.9778C15.4995 17.8508 15.1805 18.6868 14.6025 19.3328C14.5035 19.4428 14.3675 19.4998 14.2295 19.4998C14.1105 19.4998 13.9915 19.4577 13.8965 19.3727C13.6905 19.1877 13.6735 18.8727 13.8575 18.6667C14.2725 18.2047 14.5005 17.6048 14.5005 16.9788V15.9677C14.5005 14.3397 13.4185 12.9298 11.8685 12.5398C11.5525 12.4608 11.2135 12.5037 10.9375 12.6617C9.1145 13.6757 6.88153 13.6728 5.06653 12.6638C4.78653 12.5038 4.44851 12.4598 4.13251 12.5398C2.58251 12.9298 1.49951 14.3387 1.49951 15.9677V16.9788C1.49951 17.6048 1.72752 18.2047 2.14252 18.6667C2.32652 18.8727 2.30952 19.1877 2.10352 19.3727C1.89852 19.5567 1.58352 19.5397 1.39752 19.3337C0.818522 18.6877 0.500488 17.8518 0.500488 16.9788V15.9677C0.500488 13.8807 1.89449 12.0718 3.88849 11.5708C4.45149 11.4288 5.06049 11.5088 5.5575 11.7928C7.0655 12.6318 8.93053 12.6337 10.4465 11.7907C10.9395 11.5087 11.5485 11.4288 12.1125 11.5708C14.1065 12.0708 15.4995 13.8788 15.4995 15.9668Z" fill="#41416E"/>
</svg>
