<svg width="46" height="46" viewBox="0 0 46 46" fill="none" xmlns="http://www.w3.org/2000/svg">
<g clip-path="url(#clip0_145_1441)">
<path d="M39.8025 6.18595H39.2686C40.2863 4.52898 39.9105 2.30443 38.2771 1.09253C36.5171 -0.213151 34.0161 0.207133 32.7878 2.04261L30.0153 6.18604H6.19767C4.23994 6.18604 2.64722 7.77876 2.64722 9.73649V32.4359C2.64722 34.3936 4.23994 35.9864 6.19767 35.9864H19.9887L18.9467 40.363H16.6977C15.2319 40.363 14.0395 41.5553 14.0395 43.0211V43.5761H11.267C10.7816 43.5761 10.3881 43.9697 10.3881 44.455C10.3881 44.9403 10.7816 45.3339 11.267 45.3339H34.7333C35.2187 45.3339 35.6121 44.9403 35.6121 44.455C35.6121 43.9697 35.2187 43.5761 34.7333 43.5761H31.9608V43.0211C31.9608 41.5553 30.7683 40.363 29.3026 40.363H27.0536L26.0116 35.9864H39.8026C41.7603 35.9864 43.3531 34.3936 43.3531 32.4359V27.4412V9.7364C43.3531 7.77867 41.7603 6.18595 39.8025 6.18595ZM27.2096 21.6367C25.8355 22.5987 23.2611 21.2912 20.8027 22.603C20.2029 19.4869 20.581 16.5562 23.7033 15.9094C24.1068 15.8253 24.5412 15.7872 24.9111 15.7946C25.9678 16.5786 27.0367 17.3717 28.0905 18.1536C28.5519 19.4955 28.3787 20.8184 27.2096 21.6367ZM28.0954 12.2161L30.5832 14.0619L28.67 16.3946C27.8823 15.8102 27.2052 15.3079 26.4176 14.7234C26.5811 14.479 27.9459 12.4394 28.0954 12.2161ZM34.2488 3.02019C34.9145 2.0252 36.2721 1.7937 37.2297 2.50429C38.1877 3.21496 38.3593 4.58128 37.6002 5.50683C36.2533 7.14886 33.0512 11.053 31.6992 12.7013L29.0739 10.7535L34.2488 3.02019ZM30.2029 43.0211V43.5761H15.7972V43.0211C15.7972 42.5247 16.2012 42.1207 16.6977 42.1207H29.3025C29.799 42.1207 30.2029 42.5247 30.2029 43.0211ZM25.2466 40.363H20.7536L21.7956 35.9864H24.2046L25.2466 40.363ZM41.5953 32.4359C41.5953 33.4244 40.7911 34.2286 39.8026 34.2286C38.4075 34.2286 7.76639 34.2286 6.19775 34.2286C5.20927 34.2286 4.40508 33.4244 4.40508 32.4359V28.3201H6.9166C7.40201 28.3201 7.79549 27.9265 7.79549 27.4412C7.79549 26.9559 7.40201 26.5623 6.9166 26.5623H4.40491V9.7364C4.40491 8.74791 5.20909 7.94373 6.19758 7.94373H28.8391C27.9971 9.20203 25.5407 12.873 24.7626 14.0357C23.0403 14.0512 21.3207 14.6512 20.195 15.9654C18.6632 17.7534 18.3941 20.5631 19.3952 24.3161C19.5663 24.9579 20.367 25.1878 20.8516 24.725C23.1241 22.5535 25.9545 24.9221 28.4891 22.8706C30.0363 21.6182 30.4024 19.6272 29.819 17.7653C30.6077 16.8038 37.0843 8.90752 37.8748 7.94373H39.8024C40.7909 7.94373 41.5951 8.74791 41.5951 9.7364V26.5622H13.9475C13.4621 26.5622 13.0686 26.9558 13.0686 27.4411C13.0686 27.9264 13.4621 28.32 13.9475 28.32H41.5953V32.4359Z" fill="#60E1CB"/>
<path d="M10.2628 26.5792C9.83969 26.6657 9.55615 27.0314 9.55615 27.4415C9.55615 27.9913 10.0588 28.4123 10.6064 28.3028C11.0931 28.204 11.3896 27.7351 11.2964 27.2692C11.1986 26.7885 10.7322 26.4847 10.2628 26.5792Z" fill="#60E1CB"/>
</g>
<defs>
<clipPath id="clip0_145_1441">
<rect width="45" height="45" fill="white" transform="translate(0.499756 0.333984)"/>
</clipPath>
</defs>
</svg>
