<svg width="45" height="45" viewBox="0 0 45 45" fill="none" xmlns="http://www.w3.org/2000/svg">
<g clip-path="url(#clip0_145_1396)">
<path d="M39.8908 41.7094H5.10821C2.29146 41.7094 -0.000488281 39.4684 -0.000488281 36.7142V7.87993C-0.000488281 5.12578 2.29146 2.88477 5.10821 2.88477H39.8908C42.7076 2.88477 44.9995 5.12578 44.9995 7.87993V36.7142C44.9995 39.4684 42.7076 41.7094 39.8908 41.7094ZM5.10821 4.37269C3.13046 4.37269 1.52125 5.94613 1.52125 7.87993V36.7142C1.52125 38.648 3.13046 40.2215 5.10821 40.2215H39.8908C41.8686 40.2215 43.4778 38.648 43.4778 36.7142V7.87993C43.4778 5.94613 41.8686 4.37269 39.8908 4.37269H5.10821Z" fill="#60E1CB"/>
<path d="M38.1321 30.3512H26.176C25.7557 30.3512 25.4152 30.0182 25.4152 29.6072C25.4152 29.1967 25.7557 28.8633 26.176 28.8633H38.1321C38.5521 28.8633 38.893 29.1967 38.893 29.6072C38.893 30.0182 38.5525 30.3512 38.1321 30.3512Z" fill="#60E1CB"/>
<path d="M38.1321 35.7299H26.176C25.7557 35.7299 25.4152 35.3969 25.4152 34.9859C25.4152 34.5753 25.7557 34.2419 26.176 34.2419H38.1321C38.5521 34.2419 38.893 34.5753 38.893 34.9859C38.893 35.3969 38.5525 35.7299 38.1321 35.7299Z" fill="#60E1CB"/>
<path d="M38.1321 19.5936H26.176C25.7557 19.5936 25.4152 19.2607 25.4152 18.8497C25.4152 18.4391 25.7557 18.1057 26.176 18.1057H38.1321C38.5521 18.1057 38.893 18.4391 38.893 18.8497C38.893 19.2607 38.5525 19.5936 38.1321 19.5936Z" fill="#60E1CB"/>
<path d="M38.1321 24.9723H26.176C25.7557 24.9723 25.4152 24.6393 25.4152 24.2283C25.4152 23.8177 25.7557 23.4844 26.176 23.4844H38.1321C38.5521 23.4844 38.893 23.8177 38.893 24.2283C38.893 24.6393 38.5525 24.9723 38.1321 24.9723Z" fill="#60E1CB"/>
<path d="M44.2386 12.8466H0.760381C0.340035 12.8466 -0.000488281 12.5136 -0.000488281 12.1026C-0.000488281 11.6916 0.340035 11.3586 0.760381 11.3586H44.2386C44.659 11.3586 44.9995 11.6916 44.9995 12.1026C44.9995 12.5136 44.659 12.8466 44.2386 12.8466Z" fill="#60E1CB"/>
<path d="M10.9685 10.1948C9.66292 10.1948 8.60059 9.15647 8.60059 7.87986C8.60059 6.60325 9.66292 5.56494 10.9685 5.56494C12.2742 5.56494 13.3361 6.60325 13.3361 7.87986C13.3361 9.15647 12.2742 10.1948 10.9685 10.1948ZM10.9685 7.05286C10.5019 7.05286 10.1223 7.42401 10.1223 7.87986C10.1223 8.3357 10.5019 8.70685 10.9685 8.70685C11.4347 8.70685 11.8143 8.3357 11.8143 7.87986C11.8143 7.42401 11.4347 7.05286 10.9685 7.05286Z" fill="#60E1CB"/>
<path d="M5.48606 10.1948C4.18086 10.1948 3.11853 9.15647 3.11853 7.87986C3.11853 6.60325 4.18086 5.56494 5.48606 5.56494C6.79168 5.56494 7.85401 6.60325 7.85401 7.87986C7.85401 9.15647 6.79168 10.1948 5.48606 10.1948ZM5.48606 7.05286C5.01986 7.05286 4.64027 7.42401 4.64027 7.87986C4.64027 8.3357 5.01986 8.70685 5.48606 8.70685C5.95268 8.70685 6.33227 8.3357 6.33227 7.87986C6.33227 7.42401 5.95268 7.05286 5.48606 7.05286Z" fill="#60E1CB"/>
<path d="M16.4503 10.1948C15.1447 10.1948 14.0828 9.15647 14.0828 7.87986C14.0828 6.60325 15.1447 5.56494 16.4503 5.56494C17.7559 5.56494 18.8182 6.60325 18.8182 7.87986C18.8182 9.15647 17.7559 10.1948 16.4503 10.1948ZM16.4503 7.05286C15.9837 7.05286 15.6045 7.42401 15.6045 7.87986C15.6045 8.3357 15.9841 8.70685 16.4503 8.70685C16.9169 8.70685 17.2965 8.3357 17.2965 7.87986C17.2965 7.42401 16.9169 7.05286 16.4503 7.05286Z" fill="#60E1CB"/>
<path d="M20.4344 35.73H6.63001C6.20966 35.73 5.86914 35.397 5.86914 34.986V18.8497C5.86914 18.4391 6.20966 18.1057 6.63001 18.1057H20.4344C20.8547 18.1057 21.1952 18.4391 21.1952 18.8497V34.986C21.1952 35.397 20.8547 35.73 20.4344 35.73ZM7.39088 34.242H19.6735V19.5936H7.39088V34.242Z" fill="#60E1CB"/>
</g>
<defs>
<clipPath id="clip0_145_1396">
<rect width="45" height="44" fill="white" transform="translate(-0.000488281 0.333984)"/>
</clipPath>
</defs>
</svg>
