<svg width="46" height="46" viewBox="0 0 46 46" fill="none" xmlns="http://www.w3.org/2000/svg">
<g clip-path="url(#clip0_145_1422)">
<path d="M44.6069 7.40529C43.5623 4.75354 42.4373 3.86963 37.9373 3.86963C35.2051 3.86963 33.1158 5.95888 33.1158 8.69104C33.1158 10.1375 33.9194 11.5035 34.723 12.95C34.9641 13.5125 35.3658 14.075 35.6069 14.6375L35.9283 15.2803C36.6516 16.7267 37.1337 17.7714 37.1337 19.941C37.1337 20.825 36.9729 21.7893 36.5712 23.1553V23.2356L33.9194 31.191L27.0327 11.6786C27.2657 11.6486 27.4988 11.6172 27.7319 11.5839C29.0177 11.5839 30.0623 10.4589 30.0623 9.17312C30.0623 7.80704 29.0176 6.76237 27.6515 6.76237C27.5712 6.76237 27.5712 6.76237 27.4908 6.76237C24.3568 7.24454 21.2229 7.24454 18.089 6.76237C18.0087 6.76237 18.0087 6.76237 17.9283 6.76237C16.5622 6.76237 15.5175 7.80704 15.5175 9.17312C15.5176 10.4589 16.5623 11.5839 17.848 11.5839C18.1172 11.6242 18.3892 11.6614 18.6622 11.6969L21.9462 20.0214L17.9283 31.8339L10.6956 11.5976C10.7225 11.5929 10.7495 11.5887 10.7765 11.5839C12.0623 11.5035 13.1068 10.4589 13.1068 9.17312C13.1068 7.80704 12.0622 6.76237 10.6961 6.76237C10.6158 6.76237 10.6158 6.76237 10.5353 6.76237C7.96392 7.24454 5.3925 7.24454 2.82108 6.76237C2.74075 6.76237 2.74075 6.76237 2.66033 6.76237C1.29442 6.76246 0.249756 7.80713 0.249756 9.17312C0.249756 10.4364 1.25839 11.4662 2.51312 11.5781L12.3837 38.5839C12.9462 40.1106 14.1515 41.2356 15.7587 41.6375C16.1604 41.7178 16.4819 41.7982 16.8837 41.7982C18.8926 41.7982 20.8212 40.4321 21.464 38.5035L26.0443 24.8428L30.8658 38.5035C31.2675 39.6285 32.0711 40.4321 32.955 40.7535C33.7586 41.075 34.6425 40.9946 35.4461 40.5928C36.4908 40.191 37.2943 39.307 37.6158 38.2625L43.5623 20.4231C44.9283 16.9678 45.2498 13.9142 45.2498 11.9856V10.6999C45.2498 9.57496 45.089 8.44996 44.6069 7.40529ZM17.9283 9.97671C17.4462 9.97671 17.1248 9.65529 17.1248 9.17312C17.1248 8.77138 17.4462 8.36954 17.848 8.36954C21.1427 8.93204 24.3569 8.93204 27.7319 8.36954C28.1337 8.36954 28.4552 8.77129 28.4552 9.17312C28.4552 9.65529 28.1338 9.97671 27.6516 9.97671C27.5713 9.97671 27.5713 9.97671 27.4908 9.97671C27.0127 10.0503 26.5347 10.1112 26.0566 10.1623C25.9766 10.1458 25.892 10.1375 25.8033 10.1375C23.6337 10.3785 21.4641 10.3785 19.2944 10.1375C19.2929 10.1375 19.2913 10.1376 19.2899 10.1376C18.8896 10.0918 18.4893 10.0383 18.0891 9.97671C18.0087 9.97671 18.0087 9.97671 17.9283 9.97671ZM1.85692 9.17312C1.85692 8.77138 2.17834 8.36954 2.58018 8.36954C5.31234 8.93204 8.04442 8.93204 10.7766 8.36954C11.1783 8.36954 11.4998 8.77129 11.4998 9.17312C11.4998 9.65529 11.1784 9.97671 10.6963 9.97671C10.6159 9.97671 10.6159 9.97671 10.5355 9.97671C10.203 10.039 9.87053 10.093 9.53804 10.1392C9.52239 10.1385 9.50675 10.1375 9.49084 10.1375C9.35663 10.1589 9.22198 10.1787 9.08707 10.1973C7.21148 10.417 5.33599 10.3788 3.4604 10.0854C3.40802 10.0758 3.35563 10.0671 3.30334 10.0571C3.29631 10.0571 3.28928 10.0577 3.28225 10.0578C3.12853 10.0324 2.97489 10.0056 2.82117 9.9768C2.74084 9.9768 2.74084 9.9768 2.66042 9.9768C2.17834 9.97671 1.85692 9.65529 1.85692 9.17312ZM43.5623 12.066C43.5623 13.8339 43.3212 16.7268 42.0355 19.941L36.0088 37.7803C35.7677 38.4231 35.2855 38.9053 34.6427 39.1464C34.2409 39.3071 33.8391 39.3875 33.4373 39.2267C32.9552 39.066 32.4731 38.5839 32.232 37.941L26.607 22.191C26.5267 21.8695 26.2053 21.6285 25.8838 21.6285C25.5623 21.6285 25.2409 21.8695 25.1605 22.191L19.9373 37.941C19.4551 39.4678 17.7676 40.4321 16.1605 40.0303C15.1158 39.7892 14.3123 39.066 13.9105 38.0214L4.35495 11.844C5.12944 11.9327 5.90385 11.9857 6.67834 11.9857C7.48298 11.9857 8.28762 11.9288 9.09217 11.8337L17.2854 34.566C17.3658 34.8875 17.6872 35.1285 18.0087 35.1285C18.3301 35.1285 18.6515 34.8875 18.7319 34.566L23.5533 20.2625C23.6337 20.1017 23.6337 19.8607 23.5533 19.7L20.5259 11.8925C21.2737 11.9512 22.0201 11.9857 22.7498 11.9857C23.618 11.9857 24.5102 11.9376 25.4128 11.8564L33.2765 33.9232C33.3568 34.2446 33.6783 34.4857 33.9998 34.4857C34.3213 34.4857 34.6426 34.2446 34.723 33.9232L38.098 23.8785C38.1783 23.7982 38.1783 23.7982 38.1783 23.7178C38.6605 22.191 38.8212 20.9856 38.8212 20.0214C38.8212 17.45 38.1783 16.1642 37.4551 14.6375L37.1337 13.9946C36.8123 13.4321 36.4908 12.7893 36.1694 12.2268C35.4462 11.0214 34.8033 9.81604 34.8033 8.77138C34.8033 6.68213 36.4908 5.55713 38.0176 5.55713C42.1962 5.55713 42.5176 6.36071 43.0801 8.04821C43.4015 8.8518 43.5623 9.73571 43.5623 10.7V12.066Z" fill="#60E1CB"/>
</g>
<defs>
<clipPath id="clip0_145_1422">
<rect width="45" height="45" fill="white" transform="translate(0.249756 0.333984)"/>
</clipPath>
</defs>
</svg>
